<?xml version="1.0" encoding="UTF-8"?>
<svg width="800" height="600" viewBox="0 0 800 600" fill="none" xmlns="http://www.w3.org/2000/svg">
    <!-- Fundo -->
    <rect width="800" height="600" fill="#F8FAFC"/>
    
    <!-- Navbar -->
    <rect width="800" height="60" fill="#FFFFFF"/>
    <rect x="20" y="20" width="120" height="20" rx="4" fill="#3182CE"/>
    
    <!-- Sidebar -->
    <rect width="200" height="600" fill="#FFFFFF"/>
    <rect x="20" y="80" width="160" height="12" rx="2" fill="#E2E8F0"/>
    <rect x="20" y="100" width="160" height="12" rx="2" fill="#E2E8F0"/>
    <rect x="20" y="120" width="160" height="12" rx="2" fill="#E2E8F0"/>
    
    <!-- Cards -->
    <rect x="220" y="80" width="250" height="120" rx="8" fill="#FFFFFF" stroke="#E2E8F0"/>
    <rect x="240" y="100" width="100" height="16" rx="2" fill="#3182CE"/>
    <rect x="240" y="130" width="160" height="12" rx="2" fill="#E2E8F0"/>
    
    <rect x="490" y="80" width="250" height="120" rx="8" fill="#FFFFFF" stroke="#E2E8F0"/>
    <rect x="510" y="100" width="100" height="16" rx="2" fill="#3182CE"/>
    <rect x="510" y="130" width="160" height="12" rx="2" fill="#E2E8F0"/>
    
    <!-- Tabela -->
    <rect x="220" y="220" width="520" height="300" rx="8" fill="#FFFFFF" stroke="#E2E8F0"/>
    <rect x="240" y="240" width="480" height="40" rx="4" fill="#F7FAFC"/>
    <rect x="240" y="290" width="480" height="1" fill="#E2E8F0"/>
    <rect x="240" y="330" width="480" height="1" fill="#E2E8F0"/>
    <rect x="240" y="370" width="480" height="1" fill="#E2E8F0"/>
    <rect x="240" y="410" width="480" height="1" fill="#E2E8F0"/>
    
    <!-- Status Badges -->
    <rect x="240" y="300" width="80" height="24" rx="12" fill="#EBF8FF"/>
    <rect x="240" y="340" width="80" height="24" rx="12" fill="#F0FFF4"/>
    <rect x="240" y="380" width="80" height="24" rx="12" fill="#FFF5F5"/>
</svg> 